name rise30.8019peak61.5557fall86.2505.mot
datacolumns 19
datarows 21
range 21.33659100000000 21.36991900000000
endheader
time	ground_force1_vx	ground_force1_vy	ground_force1_vz	ground_force1_px	ground_force1_py	ground_force1_pz	ground_force2_vx	ground_force2_vy	ground_force2_vz	ground_force2_px	ground_force2_py	ground_force2_pz	ground_torque1_x	ground_torque1_y	ground_torque1_z	ground_torque2_x	ground_torque2_y	ground_torque2_z	
21.33659100000000	38.12878100000000	728.40624200000002	42.72159800000000	0.22989400000000	0.00000000000000	0.09751900000000	0.00000000000000	0.00000000000000	0.00000000000000	0.00000000000000	0.00000000000000	0.00000000000000	0.00000000000000	12.64268200000000	0.00000000000000	0.00000000000000	0.00000000000000	0.00000000000000	
21.33825200000000	37.68070800000000	730.29194099999995	42.89764700000000	0.22902900000000	0.00000000000000	0.09754200000000	0.00000000000000	0.00000000000000	0.00000000000000	0.00000000000000	0.00000000000000	0.00000000000000	0.00000000000000	12.71020800000000	0.00000000000000	0.00000000000000	0.00000000000000	0.00000000000000	
21.33992600000000	37.23772300000000	732.06398999999999	43.07344500000000	0.22815800000000	0.00000000000000	0.09756500000000	0.00000000000000	0.00000000000000	0.00000000000000	0.00000000000000	0.00000000000000	0.00000000000000	0.00000000000000	12.77617800000000	0.00000000000000	0.00000000000000	0.00000000000000	0.00000000000000	
21.34159500000000	36.79962300000000	733.72232199999996	43.24835900000000	0.22728100000000	0.00000000000000	0.09759000000000	0.00000000000000	0.00000000000000	0.00000000000000	0.00000000000000	0.00000000000000	0.00000000000000	0.00000000000000	12.84034000000000	0.00000000000000	0.00000000000000	0.00000000000000	0.00000000000000	
21.34325400000000	36.36618400000000	735.26702499999999	43.42173800000000	0.22639700000000	0.00000000000000	0.09761600000000	0.00000000000000	0.00000000000000	0.00000000000000	0.00000000000000	0.00000000000000	0.00000000000000	0.00000000000000	12.90244400000000	0.00000000000000	0.00000000000000	0.00000000000000	0.00000000000000	
21.34492600000000	35.93716500000000	736.69834800000001	43.59291900000000	0.22550400000000	0.00000000000000	0.09764300000000	0.00000000000000	0.00000000000000	0.00000000000000	0.00000000000000	0.00000000000000	0.00000000000000	0.00000000000000	12.96224200000000	0.00000000000000	0.00000000000000	0.00000000000000	0.00000000000000	
21.34658800000000	35.51231000000000	738.01669800000002	43.76123300000000	0.22460300000000	0.00000000000000	0.09767000000000	0.00000000000000	0.00000000000000	0.00000000000000	0.00000000000000	0.00000000000000	0.00000000000000	0.00000000000000	13.01949100000000	0.00000000000000	0.00000000000000	0.00000000000000	0.00000000000000	
21.34825300000000	35.09135400000000	739.22264199999995	43.92600900000000	0.22369100000000	0.00000000000000	0.09769900000000	0.00000000000000	0.00000000000000	0.00000000000000	0.00000000000000	0.00000000000000	0.00000000000000	0.00000000000000	13.07395700000000	0.00000000000000	0.00000000000000	0.00000000000000	0.00000000000000	
21.34992300000000	34.67402200000000	740.31690800000001	44.08657700000000	0.22276900000000	0.00000000000000	0.09772800000000	0.00000000000000	0.00000000000000	0.00000000000000	0.00000000000000	0.00000000000000	0.00000000000000	0.00000000000000	13.12541200000000	0.00000000000000	0.00000000000000	0.00000000000000	0.00000000000000	
21.35160900000000	34.26003500000000	741.30038200000001	44.24227600000000	0.22183600000000	0.00000000000000	0.09775900000000	0.00000000000000	0.00000000000000	0.00000000000000	0.00000000000000	0.00000000000000	0.00000000000000	0.00000000000000	13.17364000000000	0.00000000000000	0.00000000000000	0.00000000000000	0.00000000000000	
21.35326800000000	33.84911100000000	742.17410900000004	44.39245600000000	0.22089100000000	0.00000000000000	0.09778900000000	0.00000000000000	0.00000000000000	0.00000000000000	0.00000000000000	0.00000000000000	0.00000000000000	0.00000000000000	13.21843500000000	0.00000000000000	0.00000000000000	0.00000000000000	0.00000000000000	
21.35492100000000	33.44097100000000	742.93928900000003	44.53648200000000	0.21993400000000	0.00000000000000	0.09782100000000	0.00000000000000	0.00000000000000	0.00000000000000	0.00000000000000	0.00000000000000	0.00000000000000	0.00000000000000	13.25960600000000	0.00000000000000	0.00000000000000	0.00000000000000	0.00000000000000	
21.35659500000000	33.03533800000000	743.59727399999997	44.67374000000000	0.21896500000000	0.00000000000000	0.09785300000000	0.00000000000000	0.00000000000000	0.00000000000000	0.00000000000000	0.00000000000000	0.00000000000000	0.00000000000000	13.29697600000000	0.00000000000000	0.00000000000000	0.00000000000000	0.00000000000000	
21.35825900000000	32.63193800000000	744.14956900000004	44.80364100000000	0.21798300000000	0.00000000000000	0.09788500000000	0.00000000000000	0.00000000000000	0.00000000000000	0.00000000000000	0.00000000000000	0.00000000000000	0.00000000000000	13.33038300000000	0.00000000000000	0.00000000000000	0.00000000000000	0.00000000000000	
21.35992400000000	32.23051000000000	744.59782499999994	44.92562000000000	0.21698800000000	0.00000000000000	0.09791800000000	0.00000000000000	0.00000000000000	0.00000000000000	0.00000000000000	0.00000000000000	0.00000000000000	0.00000000000000	13.35968300000000	0.00000000000000	0.00000000000000	0.00000000000000	0.00000000000000	
21.36161000000000	31.83079800000000	744.94383500000004	45.03914700000000	0.21598000000000	0.00000000000000	0.09795100000000	0.00000000000000	0.00000000000000	0.00000000000000	0.00000000000000	0.00000000000000	0.00000000000000	0.00000000000000	13.38475000000000	0.00000000000000	0.00000000000000	0.00000000000000	0.00000000000000	
21.36326100000000	31.43256000000000	745.18953199999999	45.14372400000000	0.21496000000000	0.00000000000000	0.09798500000000	0.00000000000000	0.00000000000000	0.00000000000000	0.00000000000000	0.00000000000000	0.00000000000000	0.00000000000000	13.40547600000000	0.00000000000000	0.00000000000000	0.00000000000000	0.00000000000000	
21.36492000000000	31.03556600000000	745.33698500000003	45.23889300000000	0.21392700000000	0.00000000000000	0.09801800000000	0.00000000000000	0.00000000000000	0.00000000000000	0.00000000000000	0.00000000000000	0.00000000000000	0.00000000000000	13.42177300000000	0.00000000000000	0.00000000000000	0.00000000000000	0.00000000000000	
21.36659400000000	30.63960300000000	745.38838999999996	45.32423200000000	0.21288100000000	0.00000000000000	0.09805200000000	0.00000000000000	0.00000000000000	0.00000000000000	0.00000000000000	0.00000000000000	0.00000000000000	0.00000000000000	13.43357400000000	0.00000000000000	0.00000000000000	0.00000000000000	0.00000000000000	
21.36825900000000	30.24447100000000	745.34606799999995	45.39936600000000	0.21182300000000	0.00000000000000	0.09808600000000	0.00000000000000	0.00000000000000	0.00000000000000	0.00000000000000	0.00000000000000	0.00000000000000	0.00000000000000	13.44083000000000	0.00000000000000	0.00000000000000	0.00000000000000	0.00000000000000	
21.36991900000000	29.84998800000000	745.21245999999996	45.46396000000000	0.21075400000000	0.00000000000000	0.09811900000000	0.00000000000000	0.00000000000000	0.00000000000000	0.00000000000000	0.00000000000000	0.00000000000000	0.00000000000000	13.44351400000000	0.00000000000000	0.00000000000000	0.00000000000000	0.00000000000000	
